<?xml version="1.0" encoding="utf-8"?>
<!-- Generator: Adobe Illustrator 16.0.0, SVG Export Plug-In . SVG Version: 6.00 Build 0)  -->
<!DOCTYPE svg PUBLIC "-//W3C//DTD SVG 1.1//EN" "http://www.w3.org/Graphics/SVG/1.1/DTD/svg11.dtd">
<svg version="1.1" id="Layer_1" xmlns="http://www.w3.org/2000/svg" xmlns:xlink="http://www.w3.org/1999/xlink" x="0px" y="0px"
	 width="25px" height="25px" viewBox="0 0 25 25" enable-background="new 0 0 25 25" xml:space="preserve">
<g>
	<path fill="#7ea324" d="M0,0v25h25V0H0z M17.461,10.473c0.004,0.1,0.008,0.199,0.008,0.301c0,3.078-2.346,6.627-6.629,6.627
		c-1.314,0-2.541-0.385-3.572-1.047c0.184,0.021,0.369,0.033,0.557,0.033c1.092,0,2.096-0.373,2.893-0.996
		c-1.02-0.02-1.879-0.693-2.176-1.619c0.143,0.027,0.289,0.043,0.439,0.043c0.211,0,0.418-0.029,0.613-0.082
		c-1.066-0.215-1.869-1.156-1.869-2.285c0-0.01,0-0.02,0-0.029c0.314,0.176,0.674,0.279,1.055,0.293
		c-0.625-0.418-1.035-1.131-1.035-1.939c0-0.428,0.115-0.828,0.316-1.172c1.146,1.41,2.863,2.338,4.799,2.434
		c-0.039-0.17-0.059-0.348-0.059-0.529c0-1.287,1.043-2.33,2.328-2.33c0.672,0,1.275,0.283,1.701,0.734
		c0.531-0.104,1.029-0.297,1.479-0.564c-0.174,0.545-0.543,1.002-1.023,1.289c0.471-0.057,0.92-0.182,1.338-0.367
		C18.311,9.732,17.916,10.143,17.461,10.473z"/>
	<path fill="#FFFFFF" d="M18.309,8.344c-0.449,0.268-0.947,0.461-1.479,0.564c-0.426-0.451-1.029-0.734-1.701-0.734
		c-1.285,0-2.328,1.043-2.328,2.33c0,0.182,0.02,0.359,0.059,0.529C10.924,10.938,9.207,10.01,8.061,8.6
		C7.859,8.943,7.744,9.344,7.744,9.771c0,0.809,0.41,1.521,1.035,1.939c-0.381-0.014-0.74-0.117-1.055-0.293c0,0.01,0,0.02,0,0.029
		c0,1.129,0.803,2.07,1.869,2.285c-0.195,0.053-0.402,0.082-0.613,0.082c-0.15,0-0.297-0.016-0.439-0.043
		c0.297,0.926,1.156,1.6,2.176,1.619c-0.797,0.623-1.801,0.996-2.893,0.996c-0.188,0-0.373-0.012-0.557-0.033
		C8.299,17.016,9.525,17.4,10.84,17.4c4.283,0,6.629-3.549,6.629-6.627c0-0.102-0.004-0.201-0.008-0.301
		c0.455-0.33,0.85-0.74,1.162-1.207c-0.418,0.186-0.867,0.311-1.338,0.367C17.766,9.346,18.135,8.889,18.309,8.344z"/>
</g>
</svg>
