<?xml version="1.0" encoding="utf-8"?>
<!-- Generator: Adobe Illustrator 16.0.0, SVG Export Plug-In . SVG Version: 6.00 Build 0)  -->
<!DOCTYPE svg PUBLIC "-//W3C//DTD SVG 1.1//EN" "http://www.w3.org/Graphics/SVG/1.1/DTD/svg11.dtd">
<svg version="1.1" id="Layer_1" xmlns="http://www.w3.org/2000/svg" xmlns:xlink="http://www.w3.org/1999/xlink" x="0px" y="0px"
	 width="25px" height="25px" viewBox="0 0 25 25" enable-background="new 0 0 25 25" xml:space="preserve">
<g>
	<path fill="#7ea324" d="M0,0v25h25V0H0z M16.006,12.277h-2.146v5.748H11.67v-5.748h-1.518v-2.068h1.518c0,0,0-0.848,0-1.768
		c0-1.389,0.898-2.664,2.967-2.664c0.838,0,1.459,0.08,1.459,0.08l-0.051,1.932c0,0-0.631-0.006-1.32-0.006
		c-0.748,0-0.865,0.344-0.865,0.914c0,0.084,0,0.104,0,0.095c0,0.156,0,0.54,0,1.417h2.246L16.006,12.277z"/>
	<path fill="#FFFFFF" d="M13.859,8.792c0,0.008,0-0.011,0-0.095c0,0,0-0.003,0-0.002c0-0.001,0,0.001,0,0.002
		c0-0.57,0.117-0.914,0.865-0.914c0.689,0,1.32,0.006,1.32,0.006l0.051-1.932c0,0-0.621-0.08-1.459-0.08
		c-2.068,0-2.967,1.275-2.967,2.664c0,0.92,0,1.768,0,1.768h-1.518v2.068h1.518v5.748h2.189v-5.748h2.146l0.1-2.068h-2.246
		C13.859,9.332,13.859,8.948,13.859,8.792z"/>
</g>
</svg>
