<?xml version="1.0" encoding="utf-8"?>
<!-- Generator: Adobe Illustrator 16.0.0, SVG Export Plug-In . SVG Version: 6.00 Build 0)  -->
<!DOCTYPE svg PUBLIC "-//W3C//DTD SVG 1.1//EN" "http://www.w3.org/Graphics/SVG/1.1/DTD/svg11.dtd">
<svg version="1.1" id="Layer_1" xmlns="http://www.w3.org/2000/svg" xmlns:xlink="http://www.w3.org/1999/xlink" x="0px" y="0px"
	 width="123px" height="20px" viewBox="0 0 123 20" enable-background="new 0 0 123 20" xml:space="preserve">
<g>
	<path fill="#FFFFFF" d="M16.127,10.471c-0.032,0.352-0.176,0.843-0.432,1.473c-0.298,0.703-0.48,1.199-0.544,1.488
		c-0.213,1.002-0.368,1.994-0.464,2.975c-0.021,0.16-0.027,0.391-0.016,0.689c0.021,0.416,0.032,0.672,0.032,0.768
		c0,0.895-0.299,1.412-0.896,1.551l-0.4,0.145c-0.182,0.064-0.31,0.086-0.384,0.064c-0.267-0.086-0.667-0.246-1.2-0.48
		c-0.182-0.117-0.288-0.373-0.32-0.768v-0.912c0-0.086-0.005-0.24-0.016-0.465c-0.011-0.223-0.016-0.383-0.016-0.479
		c0-0.064,0.021-0.168,0.064-0.312c0.042-0.145,0.064-0.254,0.064-0.328c0-0.148-0.059-0.277-0.176-0.385
		c-0.17-0.031-0.283-0.031-0.336,0c-0.885,0.512-1.952,0.795-3.2,0.848c-1.227,0.055-2.4-0.111-3.52-0.494
		c-1.163-0.395-2.016-0.945-2.56-1.648c-0.224-0.277-0.414-0.715-0.568-1.312c-0.154-0.598-0.232-1.2-0.232-1.809
		c0-0.405,0.038-0.768,0.112-1.087c0.074-0.32,0.202-0.779,0.384-1.376C1.556,8.476,1.871,7.948,2.447,7.03
		c0.299-0.384,0.715-0.938,1.248-1.664c0.224-0.32,0.8-0.885,1.728-1.696c0.629-0.544,1.259-1.093,1.888-1.648
		c0.597-0.533,1.061-0.891,1.392-1.072c0.48-0.277,1.05-0.443,1.712-0.496c0.181-0.011,0.432,0.042,0.752,0.16
		c0.256,0.117,0.517,0.229,0.784,0.336c0.416,0.17,0.768,0.592,1.056,1.264c0.277,0.63,0.411,1.264,0.4,1.904
		c-0.011,0.726-0.214,1.168-0.608,1.328c-0.267,0.107-0.603,0.059-1.008-0.144c-0.149-0.075-0.347-0.411-0.592-1.008
		c-0.224-0.533-0.464-0.794-0.72-0.784c-0.395,0.011-0.939,0.25-1.632,0.72C8.26,4.636,7.737,5.073,7.279,5.542
		C6.042,6.791,5.146,7.798,4.591,8.566c-0.661,0.907-1.12,1.819-1.376,2.736c-0.075,0.267-0.032,0.533,0.128,0.801
		c0.213,0.373,0.619,0.639,1.216,0.799c0.533,0.117,1.066,0.23,1.6,0.336c0.096,0.086,0.25,0.176,0.464,0.273
		c0.362,0.01,0.693,0.016,0.992,0.016c2.005-0.021,3.381-0.438,4.128-1.248c0.106-0.107,0.16-0.256,0.16-0.449
		c0-0.139-0.059-0.24-0.176-0.304c-0.16,0.021-0.934,0.177-2.32,0.464c-0.96,0.203-1.808,0.332-2.544,0.385
		c-0.192,0.01-0.4-0.131-0.624-0.424c-0.224-0.294-0.357-0.59-0.4-0.889c-0.021-0.106-0.032-0.245-0.032-0.416
		c0-0.917,0.208-1.461,0.624-1.632c0.8-0.352,1.994-0.656,3.584-0.912c2.154-0.352,3.354-0.56,3.6-0.624
		c0.17-0.032,0.389-0.037,0.656-0.016c0.309,0.021,0.539,0.091,0.688,0.208c0.384,0.31,0.688,0.747,0.912,1.312
		C16.074,9.505,16.159,10.001,16.127,10.471z M27.407,14.615c-0.118,0.213-0.454,0.672-1.008,1.375
		c-0.117,0.139-0.411,0.209-0.88,0.209c-0.267,0-0.48-0.029-0.64-0.088c-0.16-0.059-0.405-0.281-0.736-0.664
		c-0.224-0.268-0.454-0.529-0.688-0.785c-0.8-0.811-1.488-1.402-2.064-1.775c-0.235-0.148-0.592-0.404-1.072-0.768
		c-0.117,0.01-0.24,0.117-0.368,0.32c-0.096,0.318-0.15,0.555-0.16,0.703c-0.011,0.053,0.01,0.379,0.064,0.977
		c0.064,0.672,0.096,1.174,0.096,1.504c0,0.352-0.027,0.592-0.08,0.719l-0.144,0.273c-0.075,0.127-0.166,0.197-0.272,0.207
		c-0.598,0.096-1.078,0.043-1.44-0.16c-0.363-0.201-0.64-0.559-0.832-1.072c-0.16-0.426-0.24-0.879-0.24-1.359
		c0-0.33,0.045-0.805,0.136-1.424c0.09-0.619,0.136-1.051,0.136-1.296c0-0.118-0.005-0.229-0.016-0.337
		c-0.011-0.042-0.099-0.151-0.264-0.327c-0.166-0.176-0.264-0.323-0.296-0.44c-0.118-0.405-0.176-0.752-0.176-1.04
		c0-0.587,0.197-1.035,0.592-1.344c0.032-0.021,0.187-0.048,0.464-0.08c0.224-0.032,0.373-0.144,0.448-0.336
		c0.277-0.736,0.475-1.589,0.592-2.56c0.01-0.032-0.027-0.085-0.112-0.16l-0.192-0.16c-0.235-0.288-0.395-0.592-0.48-0.912
		c-0.032-0.106-0.048-0.229-0.048-0.368c0-0.469,0.128-0.949,0.384-1.44c0.277-0.544,0.624-0.896,1.04-1.056
		c0.683-0.256,1.515-0.379,2.496-0.368c1.184,0,2.208,0.619,3.072,1.856c0.8,1.142,1.2,2.363,1.2,3.664
		c0,0.534-0.085,1.003-0.256,1.408c-0.118,0.352-0.315,0.848-0.592,1.488c-0.17,0.235-0.341,0.475-0.512,0.72
		c-0.277,0.405-0.416,0.634-0.416,0.688c0,0.096,0.117,0.25,0.352,0.464c0.202,0.203,0.539,0.443,1.008,0.719
		c0.576,0.354,0.976,0.609,1.2,0.77c0.565,0.416,0.848,0.965,0.848,1.646C27.551,14.242,27.503,14.443,27.407,14.615z M21.519,4.022
		c-0.107,0-0.171,0.085-0.192,0.256c0.021,0.246,0.032,0.582,0.032,1.008c-0.106,0.586-0.219,1.35-0.336,2.288
		c0.597-0.118,1.088-0.411,1.472-0.88c0.352-0.426,0.528-0.88,0.528-1.36c0-0.395-0.128-0.714-0.384-0.96
		C22.383,4.129,22.009,4.012,21.519,4.022z M38.927,4.294c-0.128,0.267-0.406,0.454-0.832,0.56
		c-0.256,0.043-0.512,0.085-0.768,0.128c-0.491,0.171-0.928,0.283-1.312,0.336c-0.48,0.064-0.773,0.112-0.88,0.144
		c-0.426,0.096-0.848,0.192-1.264,0.288c-0.48,0.118-1.008,0.32-1.584,0.608c-0.256,0.118-0.406,0.454-0.448,1.008
		c0.075,0.128,0.16,0.192,0.256,0.192c0.395,0.011,0.979-0.102,1.752-0.336c0.773-0.235,1.352-0.352,1.736-0.352
		c0.128,0,0.25,0.005,0.368,0.016c0.458,0.075,0.837,0.469,1.136,1.184c0.256,0.608,0.384,1.195,0.384,1.76
		c0,0.107-0.011,0.197-0.032,0.272c-0.032,0.192-0.368,0.368-1.008,0.528c-0.438,0.107-1.094,0.171-1.968,0.192
		c-0.672,0.011-1.813,0.224-3.424,0.64c-0.128,0.031-0.208,0.144-0.24,0.336c-0.021,0.17-0.011,0.293,0.032,0.367
		c0.064,0.129,0.205,0.215,0.424,0.256c0.219,0.043,0.344,0.08,0.376,0.113c0.277,0.244,0.582,0.367,0.912,0.367
		c0.256,0,0.592-0.088,1.008-0.264s0.699-0.264,0.848-0.264s0.277,0.047,0.384,0.145c0.661,0.639,0.992,1.35,0.992,2.127
		c0,0.363-0.08,0.693-0.24,0.992c-0.416,0.789-1.253,1.162-2.512,1.119c-0.864-0.021-1.632-0.223-2.304-0.607
		c-0.352-0.105-0.864-0.336-1.536-0.688c-0.363-0.268-0.683-0.721-0.96-1.359c-0.256-0.588-0.411-1.146-0.464-1.682
		c-0.011-0.191-0.016-0.383-0.016-0.575c0-1.045,0.362-2.458,1.088-4.24c0.277,0.064,0.416-0.085,0.416-0.448
		c0-0.182-0.043-0.31-0.128-0.384c-0.128,0-0.272-0.016-0.432-0.048c-0.47-0.491-0.704-1.12-0.704-1.888
		c0-0.725,0.203-1.264,0.608-1.616c0.128-0.117,0.32-0.208,0.576-0.272c0.203-0.042,0.405-0.085,0.608-0.128
		c0.139-0.096,0.336-0.203,0.592-0.32c1.888-0.554,3.968-1.04,6.24-1.456c0.106-0.021,0.213-0.032,0.32-0.032
		c0.682,0,1.173,0.416,1.472,1.248c0,0.011,0.123,0.304,0.368,0.88c0.149,0.352,0.224,0.629,0.224,0.832
		C38.991,4.092,38.97,4.199,38.927,4.294z M50.031,3.095c0.043,0.096,0.064,0.234,0.064,0.416c0,0.352-0.086,0.699-0.256,1.04
		c-0.491,0.107-1.584,0.246-3.28,0.416c-1.184,0.118-2.224,0.384-3.12,0.8c-0.064,0.032-0.149,0.16-0.256,0.384
		c-0.139,0.32-0.213,0.491-0.224,0.512c-0.064,0.096-0.176,0.25-0.336,0.464c0.192,0.096,0.421,0.144,0.688,0.144
		c0.277,0,0.634-0.053,1.072-0.16c0.331-0.085,0.667-0.17,1.008-0.256c0.128-0.032,0.288-0.101,0.48-0.208
		c0.267-0.16,0.437-0.256,0.512-0.288c0.042-0.021,0.091-0.032,0.144-0.032c0.192,0,0.414,0.072,0.664,0.216s0.424,0.307,0.52,0.488
		c0.331,0.619,0.522,1.088,0.576,1.408c0.117,0.715,0.064,1.158-0.16,1.328c-0.331,0.246-0.872,0.478-1.624,0.696
		c-0.752,0.219-1.363,0.312-1.832,0.28c-0.042,0-0.136,0.042-0.28,0.128s-0.243,0.133-0.296,0.144
		c-0.598,0.085-1.488,0.214-2.672,0.384c-0.128,0.021-0.245,0.091-0.352,0.208c-0.106,0.118-0.16,0.229-0.16,0.337
		c0,0.062,0.021,0.117,0.064,0.16c0.416,0.352,1.029,0.527,1.84,0.527c1.099,0,1.851-0.246,2.256-0.736
		c0.042-0.053,0.107-0.086,0.192-0.096c0.096-0.011,0.165,0,0.208,0.031c0.384,0.268,0.685,0.654,0.904,1.16
		c0.218,0.508,0.312,1.016,0.28,1.529c-0.085,1.184-0.704,1.844-1.856,1.982c-0.234,0.055-0.597,0.117-1.088,0.193
		c-0.501,0.053-1.248-0.043-2.24-0.289c-1.035-0.266-1.67-0.543-1.904-0.832c-0.256-0.33-0.549-0.816-0.88-1.455
		c-0.438-0.865-0.662-1.547-0.672-2.049c-0.011-0.234,0.048-0.65,0.176-1.248c0.085-0.438,0.17-0.875,0.256-1.312
		c0.118-0.619,0.267-1.195,0.448-1.728c0.096-0.288,0.405-0.981,0.928-2.08c0.032-0.075,0.074-0.438,0.128-1.088
		c0.053-0.651,0.123-1.099,0.208-1.344c0.074-0.213,0.277-0.384,0.608-0.512c0.267-0.096,0.539-0.192,0.816-0.288
		c0.362-0.203,0.661-0.32,0.896-0.352c0.192-0.011,0.389-0.021,0.592-0.032c0.246-0.032,1.088-0.224,2.528-0.576
		c1.184-0.288,2.026-0.405,2.528-0.352c0.576,0.064,0.955,0.256,1.136,0.576C49.444,2.012,49.7,2.465,50.031,3.095z M73.887,5.143
		c0.021,0.64-0.25,1.317-0.816,2.032c-0.438,0.555-0.965,1.046-1.584,1.472c-0.521,0.352-1.37,0.72-2.543,1.104l-1.217,0.4
		c-0.139,0.054-0.282,0.518-0.432,1.393c-0.139,0.768-0.208,1.334-0.208,1.695v2.209c-0.054,0.234-0.112,0.469-0.176,0.703
		c-0.097,0.311-0.274,0.533-0.536,0.672s-0.547,0.16-0.855,0.064c-0.246-0.074-0.411-0.129-0.496-0.16
		c-0.182-0.074-0.314-0.166-0.4-0.271c-0.395-0.459-0.592-1.082-0.592-1.873c0-0.309,0.039-0.775,0.119-1.398
		c0.08-0.625,0.121-1.076,0.121-1.354c0-0.224-0.017-0.421-0.049-0.592c-0.01-0.053-0.176-0.224-0.496-0.512
		c-0.405-0.363-0.661-0.603-0.768-0.72c-0.234-0.266-0.352-0.645-0.352-1.136c0-0.416,0.074-0.832,0.224-1.248
		c0.032-0.085,0.144-0.243,0.336-0.472c0.192-0.229,0.341-0.354,0.448-0.376c0.16-0.021,0.395-0.074,0.703-0.16
		c0.16-0.075,0.246-0.197,0.257-0.368c0.085-1.002,0.128-1.557,0.128-1.664c0-0.128-0.086-0.192-0.256-0.192
		c-0.608,0-1.137,0.117-1.584,0.352c-0.608,0.32-1.067,0.48-1.376,0.48c-0.106,0-0.2-0.011-0.28-0.032
		c-0.08-0.021-0.229-0.106-0.448-0.256s-0.365-0.213-0.44-0.192c-0.181,0.203-0.256,0.363-0.224,0.48
		c0.16,0.512,0.24,0.992,0.24,1.44c0,0.106-0.016,0.368-0.048,0.784c-0.021,0.342-0.021,0.651,0,0.928
		c0.021,0.448-0.011,1.067-0.096,1.856c-0.064,0.672-0.133,1.344-0.208,2.016c-0.011,0.096,0.019,0.268,0.088,0.512
		c0.069,0.246,0.109,0.391,0.12,0.434c0.053,0.682,0.053,1.236,0,1.664c-0.064,0.447-0.106,0.715-0.128,0.799
		c-0.096,0.406-0.277,0.752-0.544,1.041c-0.139,0.17-0.523,0.256-1.152,0.256c-0.416,0-0.688-0.043-0.816-0.129
		c-0.48-0.309-0.821-0.943-1.024-1.904c-0.213-1.045-0.485-1.738-0.816-2.08c-0.16-0.17-0.533-0.768-1.12-1.791
		c-0.096-0.192-0.192-0.384-0.288-0.576c-0.139-0.267-0.32-0.48-0.544-0.64c-0.256,0.107-0.576,1.168-0.96,3.185
		c0,0.021-0.059,0.475-0.176,1.359c-0.075,0.533-0.176,0.922-0.304,1.168c-0.224,0.406-0.576,0.57-1.056,0.496
		c-1.163-0.203-1.744-0.939-1.744-2.209c0-0.404,0.069-0.953,0.208-1.646c0.181-0.844,0.362-1.691,0.544-2.545
		c0.192-1.002,0.309-1.915,0.352-2.736c0.085-1.386,0.128-2.101,0.128-2.144c0-0.032-0.035-0.104-0.104-0.216
		s-0.104-0.2-0.104-0.264c0-1.088,0.019-1.794,0.056-2.12c0.037-0.325,0.221-0.648,0.552-0.968c0.331-0.32,0.672-0.48,1.024-0.48
		c0.149,0,0.288,0.032,0.416,0.096c0.032,0.011,0.208,0.048,0.528,0.112c0.267,0.054,0.448,0.128,0.544,0.224
		c0.309,0.299,0.496,0.832,0.56,1.6c0.042,0.629,0.08,1.259,0.112,1.888c0.085,0.48,0.298,0.96,0.64,1.44
		c0.309,0.395,0.618,0.79,0.928,1.184c0.203,0.31,0.405,0.614,0.608,0.912c0.298,0.405,0.522,0.592,0.672,0.56
		c0.01-0.16,0.053-0.496,0.128-1.008c0.075-0.47,0.112-0.726,0.112-0.768V4.823c0-0.021,0.021-0.211,0.064-0.568
		c0.042-0.357,0.069-0.626,0.08-0.808c0.021-0.373,0.075-0.986,0.16-1.84c0.032-0.192,0.128-0.344,0.288-0.456
		c0.16-0.112,0.336-0.168,0.528-0.168c0.395,0,0.773,0.179,1.136,0.536c0.362,0.357,0.544,0.723,0.544,1.096
		c0.138-0.182,0.437-0.438,0.896-0.768c0.053-0.032,0.331-0.142,0.832-0.328c0.501-0.187,0.778-0.285,0.832-0.296
		c0.469-0.085,0.746-0.128,0.832-0.128c0.277,0,0.518,0.08,0.72,0.24c0.202-0.128,0.399-0.256,0.593-0.384
		c0.256-0.16,0.463-0.24,0.623-0.24c0.096,0,0.259,0.032,0.488,0.096c0.229,0.064,0.413,0.091,0.552,0.08
		c0.395-0.021,0.896-0.042,1.505-0.064c0.82-0.021,1.785,0.048,2.896,0.208c0.096,0.022,0.293,0.083,0.592,0.184
		c0.298,0.102,0.479,0.174,0.544,0.216c0.49,0.352,0.898,0.88,1.225,1.584C73.676,3.719,73.855,4.428,73.887,5.143z M70.559,4.743
		c0.043-0.331-0.367-0.555-1.231-0.672c-0.576-0.032-1.152-0.069-1.728-0.112c-0.235-0.021-0.379,0.069-0.433,0.272
		c0.063,0.48,0.181,1.115,0.353,1.904c0.053,0.15,0.186,0.224,0.399,0.224c0.362,0,0.912-0.208,1.647-0.624
		C70.186,5.393,70.516,5.062,70.559,4.743z M85.711,2.918c0.032,0.416,0.048,0.582,0.048,0.496c0,0.374-0.149,0.672-0.448,0.896
		c-0.202,0.149-1.077,0.374-2.623,0.672c-0.672,0.107-1.34,0.213-2,0.32c-0.736,0.128-1.713,0.4-2.929,0.816
		c-0.202,0.075-0.407,0.293-0.616,0.656c-0.207,0.363-0.328,0.656-0.359,0.88c0.139,0.16,0.384,0.24,0.736,0.24
		c0.127,0,0.58-0.059,1.359-0.176c0.864-0.118,1.482-0.256,1.855-0.416c0.385-0.203,0.773-0.4,1.168-0.592
		c0.311,0.118,0.584,0.443,0.824,0.976c0.24,0.534,0.36,1.051,0.36,1.552c0,0.544-0.182,0.95-0.544,1.216
		c-0.288,0.203-0.715,0.336-1.279,0.4c-0.459,0.043-0.918,0.085-1.377,0.128c-0.619,0.128-1.547,0.293-2.783,0.496
		c-0.299,0.021-0.604,0.037-0.912,0.048c-0.363,0.032-0.648,0.106-0.856,0.224c-0.208,0.119-0.312,0.273-0.312,0.465
		c0,0.053,0.01,0.096,0.031,0.127c0.416,0.576,0.961,0.865,1.633,0.865c0.469,0,0.959-0.133,1.472-0.4
		c0.096-0.031,0.442-0.16,1.04-0.385c0.469-0.17,0.762-0.256,0.88-0.256c0.032,0,0.054,0.006,0.063,0.018
		c0.619,0.521,0.928,1.227,0.928,2.111c0,0.543-0.139,1.014-0.416,1.408c-0.319,0.447-0.773,0.736-1.359,0.863
		c-0.117,0.074-0.33,0.182-0.641,0.32c-0.277,0.096-0.735,0.139-1.375,0.129c-1.974-0.064-3.424-0.742-4.352-2.033
		c-0.523-0.746-0.785-1.668-0.785-2.768c0-0.576,0.07-1.162,0.209-1.76c0.234-0.96,0.621-1.965,1.16-3.016
		c0.537-1.05,1.084-2.104,1.639-3.16c0.043-0.085,0.117-0.357,0.225-0.816c0.096-0.362,0.24-0.648,0.432-0.856
		c0.192-0.208,0.539-0.381,1.041-0.52c0.437-0.106,0.874-0.208,1.312-0.304c1.322-0.299,3.179-0.763,5.567-1.392
		c0.107-0.042,0.305-0.021,0.592,0.064c0.331,0.096,0.539,0.219,0.625,0.368c0.127,0.331,0.324,0.789,0.592,1.376
		C85.631,2.38,85.689,2.62,85.711,2.918z M121.52,4.935c-0.033,0.064-0.112,0.096-0.24,0.096c-0.171,0-0.598-0.112-1.28-0.336
		c-0.021-0.01-0.171,0.021-0.448,0.096c-0.33,0.085-0.623,0.144-0.88,0.176c-0.597,0.075-1.29,0.118-2.08,0.128
		c-1.482,0-2.592,0.09-3.327,0.272c-0.673,0.117-1.345,0.229-2.017,0.336c-0.821,0.213-1.231,0.64-1.231,1.28
		c0,0.139,0.016,0.293,0.047,0.464c0.736,0,1.473,0,2.209,0c0.874-0.01,1.594-0.122,2.16-0.336c0.084-0.032,0.244,0.054,0.479,0.256
		c0.479,0.427,0.821,0.922,1.024,1.488c0.127,0.352,0.17,0.672,0.127,0.96c-0.031,0.224-0.063,0.448-0.096,0.672
		c-0.053,0.31-0.144,0.539-0.271,0.688c-0.129,0.15-0.357,0.283-0.688,0.4c-0.438,0.15-0.714,0.256-0.832,0.32
		c0.032,0.064,0.155,0.189,0.368,0.377c0.213,0.186,0.342,0.354,0.385,0.504c0.053,0.182,0.079,0.41,0.079,0.688
		c0,0.715-0.149,1.258-0.448,1.633c-0.213,0.277-0.645,0.484-1.295,0.623c-0.576,0.107-1.152,0.213-1.729,0.32
		c-0.011,0-0.1,0.031-0.264,0.096c-0.166,0.064-0.297,0.096-0.393,0.096c-0.896,0-1.738-0.133-2.527-0.4
		c-1.035-0.34-1.771-0.857-2.209-1.551c-0.182-0.289-0.314-0.432-0.399-0.432c-0.043,0-0.085,0.016-0.128,0.047
		c-0.246,0.447-0.496,0.896-0.752,1.344c-0.406,0.65-0.816,1.062-1.232,1.232c-0.288,0.117-0.635,0.182-1.04,0.191
		c-0.907,0-2.063-0.287-3.472-0.863c-0.971-0.395-1.92-0.965-2.848-1.713c-0.896-0.713-1.504-1.365-1.824-1.951
		c-0.15-0.17-0.357-0.422-0.624-0.752c-0.064,0-0.123,0.031-0.177,0.096c-0.127,0.363-0.191,0.768-0.191,1.217
		c0,0.213,0.019,0.525,0.057,0.936c0.037,0.41,0.055,0.717,0.055,0.92c0,0.502-0.085,0.943-0.256,1.328
		c-0.213,0.49-0.453,0.746-0.72,0.768c-0.991,0.117-1.632-0.367-1.92-1.455c-0.117-0.428-0.187-1.35-0.208-2.77
		c0-0.17-0.102-0.271-0.304-0.303c-0.149-0.033-0.336-0.049-0.56-0.049c-0.502,0-1.067,0.059-1.697,0.176
		c-0.629,0.117-1.098,0.252-1.407,0.4c-0.075,0.139-0.177,0.314-0.304,0.527c-0.129,0.215-0.348,0.678-0.656,1.393
		c-0.448,1.045-0.906,1.654-1.376,1.824c-0.31-0.148-0.769-0.379-1.376-0.688c-0.064-0.033-0.154-0.25-0.271-0.656
		c-0.086-0.289-0.129-0.576-0.129-0.863c0-0.555,0.154-1.025,0.465-1.408c0.404-0.502,0.735-1.147,0.991-1.937
		c0.448-1.344,0.693-2.069,0.736-2.176c0.021-0.053,0.114-0.146,0.28-0.28c0.164-0.133,0.273-0.237,0.328-0.312
		c0.117-0.149,0.277-0.405,0.479-0.768c0.618-1.184,1.231-2.368,1.84-3.552c0.864-1.493,1.728-2.464,2.593-2.912
		c0.105-0.064,0.271-0.096,0.495-0.096c0.32,0,0.56,0.075,0.72,0.224c0.822,0.736,1.424,1.798,1.809,3.184
		c0.224,0.811,0.395,1.92,0.512,3.328c0.225,0,0.475-0.24,0.752-0.72c0.373-0.682,0.587-1.05,0.641-1.104
		c0.949-1.077,2.133-1.941,3.552-2.592c1.386-0.64,2.73-0.96,4.032-0.96c0.404,0,0.789,0.032,1.151,0.096
		c0.235,0.042,0.515,0.248,0.841,0.616c0.324,0.368,0.541,0.718,0.647,1.048c0.214,0.63,0.319,1.318,0.319,2.064
		c0,0.288-0.026,0.534-0.08,0.736c-0.096,0.384-0.277,0.757-0.543,1.12c-0.299,0.416-0.613,0.677-0.944,0.784
		c-0.075,0.032-0.165,0.048-0.272,0.048c-0.341,0-0.732-0.096-1.176-0.288c-0.442-0.192-0.695-0.389-0.76-0.592
		c-0.203-0.554-0.246-1.056-0.128-1.504c0.011-0.032,0.054-0.144,0.128-0.336c0.053-0.139,0.08-0.25,0.08-0.336
		c0-0.128-0.048-0.24-0.145-0.336c-1.045-0.117-2.139,0.363-3.279,1.44c-1.142,1.078-1.691,2.123-1.648,3.136
		c0.011,0.278,0.438,0.704,1.28,1.28c0.448,0.311,1.008,0.592,1.68,0.848c0.778,0.289,1.44,0.434,1.984,0.434
		c0.565,0,1.216-0.24,1.952-0.721c0.33-0.203,0.607-0.342,0.832-0.416c0.182,0.17,0.438,0.4,0.768,0.688
		c0.139-0.085,0.213-0.346,0.225-0.783c0.01-0.544,0.031-0.87,0.063-0.977c0.117-0.448,0.319-1.136,0.608-2.064
		c0.224-0.512,0.543-1.269,0.959-2.272c0-0.267,0.012-0.619,0.033-1.056c0.074-0.458,0.234-0.877,0.479-1.256
		c0.245-0.378,0.72-0.674,1.424-0.888c0.202-0.064,0.65-0.128,1.345-0.192c0.938-0.096,1.524-0.16,1.76-0.192
		c0.64-0.117,1.285-0.234,1.936-0.352c0.854-0.149,1.553-0.218,2.096-0.208c0.107,0,0.314-0.059,0.625-0.176
		c0.352-0.139,0.597-0.219,0.735-0.24c0.054-0.01,0.384-0.09,0.992-0.24c0.405-0.106,0.735-0.16,0.991-0.16
		c0.693,0,1.243,0.336,1.648,1.008c0.352,0.587,0.528,1.248,0.528,1.984C121.743,4.294,121.668,4.657,121.52,4.935z M90.688,6.247
		c0-0.117-0.033-0.395-0.097-0.832C90.58,5.34,90.52,5.26,90.407,5.174c-0.112-0.085-0.222-0.133-0.328-0.144
		c-0.267,0.502-0.534,1.008-0.8,1.52c-0.342,0.64-0.512,1.12-0.512,1.44c0.65,0,0.97,0,0.959,0c0.342-0.021,0.576-0.08,0.705-0.176
		C90.559,7.719,90.645,7.196,90.688,6.247z M113.52,11.783c-0.854-0.075-1.44-0.113-1.761-0.113h-1.647
		c-0.214-0.01-0.545-0.016-0.992-0.016c-0.395,0.021-0.582,0.197-0.561,0.529c0.672,0.287,1.232,0.432,1.68,0.432
		c0.331,0,0.667-0.07,1.009-0.209c0.16-0.064,0.354-0.076,0.584-0.039s0.429,0.035,0.601-0.008
		C112.719,12.295,113.082,12.104,113.52,11.783z"/>
</g>
</svg>
