<?xml version="1.0" encoding="utf-8"?>
<!-- Generator: Adobe Illustrator 16.0.0, SVG Export Plug-In . SVG Version: 6.00 Build 0)  -->
<!DOCTYPE svg PUBLIC "-//W3C//DTD SVG 1.1//EN" "http://www.w3.org/Graphics/SVG/1.1/DTD/svg11.dtd">
<svg version="1.1" id="Layer_1" xmlns="http://www.w3.org/2000/svg" xmlns:xlink="http://www.w3.org/1999/xlink" x="0px" y="0px"
	 width="307px" height="47px" viewBox="0 0 307 47" enable-background="new 0 0 307 47" xml:space="preserve">
<g>
	<g>
		<path fill="#FFFFFF" d="M205.414,20.589h-13.055c-0.75-2.822-3-5.424-6.484-5.424h-0.529c-3.75,0-6.527,4.058-6.527,8.732
			c0,4.676,2.777,8.733,6.527,8.733h0.529c3.484,0,5.734-2.602,6.484-5.424h13.055c-0.881,10.012-10.232,13.672-19.539,13.672
			h-0.529c-12.393,0-19.539-7.674-19.539-16.981c0-9.306,7.146-16.98,20.068-16.98C195.006,7.05,204.533,10.799,205.414,20.589"/>
		<polygon fill="#FFFFFF" points="206.512,8.019 242.723,8.019 242.723,16.135 231.035,16.135 231.035,39.777 218.199,39.777 
			218.199,16.135 206.512,16.135 		"/>
		<rect x="245.535" y="8.019" fill="#FFFFFF" width="12.791" height="31.758"/>
		<g>
			<path fill="#FFFFFF" d="M135.969,31.531c0.021-0.137-0.183-0.197-0.277-0.215c-0.047-0.008-0.067-0.029-0.114-0.025
				c-0.173,0.014-0.23,0.209-0.153,0.344c0.071,0.123,0.187,0.086,0.3,0.053C135.796,31.666,135.955,31.619,135.969,31.531z"/>
			<path fill="#FFFFFF" d="M134.492,30.039c-0.14-0.029-0.151,0.16-0.128,0.254c0.02,0.072-0.006,0.064-0.029,0.131
				c-0.021,0.055-0.02,0.111-0.011,0.166c0.021,0.119,0.06,0.178,0.148,0.246c0.026-0.086,0.105-0.15,0.151-0.227
				c0.049-0.078,0.098-0.205,0.172-0.262l-0.095-0.074C134.716,30.193,134.56,30.055,134.492,30.039z"/>
			<path fill="#FFFFFF" d="M139.227,37.666c-0.137,0.361-0.277,0.523-0.561,0.777c-0.204,0.186-0.303,0.447-0.396,0.695
				c-0.06,0.166-0.053,0.461-0.056,0.727h1.238v-0.006h0.211c0-0.311-0.05-0.668-0.079-0.844
				C139.514,38.576,139.545,38.027,139.227,37.666z"/>
			<path fill="#FFFFFF" d="M128.102,37.068c0.348,0.09,0.618,0.018,0.966,0.041c0.446,0.031,0.907,0.139,1.342,0.246
				c0.923,0.225,1.898,0.256,2.785,0.629c0.464,0.193,0.617,0.492,0.974,0.775c0.307,0.24,0.754,0.379,1.185,0.5
				c0.251-0.453,0.441-0.934,0.649-1.416c0.158-0.367,0.303-0.729,0.442-1.105c0.045-0.119,0.064-0.238,0.099-0.359
				c0.037-0.123,0.098-0.238,0.131-0.361c0.054-0.207,0.075-0.422,0.129-0.631c0.045-0.174-0.016-0.336-0.093-0.496
				c-0.198-0.4-0.403-0.902-0.776-1.18c-0.273-0.203-0.451-0.475-0.745-0.682c-0.291-0.205-0.741-0.396-0.875-0.734
				c-0.127-0.326-0.001-0.773-0.09-1.125c-0.062-0.246-0.146-0.482-0.235-0.719c-0.086-0.221-0.113-0.43,0.098-0.59
				c0.121-0.096,0.273-0.15,0.427-0.117c0.189,0.043,0.374,0.156,0.572,0.16c0.204,0.006,0.405-0.143,0.606-0.201
				c0.203-0.055,0.406-0.111,0.606-0.188c0.454-0.17,0.899-0.273,1.366-0.367c0.5-0.102,0.975-0.336,1.469-0.445
				c0.293-0.064,0.592-0.115,0.889-0.164c0.21-0.037,0.425-0.014,0.631-0.072c0.567-0.164,1.165-0.285,1.717-0.498
				c0.079-0.027,0.158-0.059,0.238-0.088c0.562-0.203,1.137-0.373,1.727-0.475c0.279-0.049,0.547-0.014,0.827-0.066
				c0.363-0.066,0.731-0.119,1.1-0.074c0.213,0.027,0.439,0.012,0.656,0.012c0.532,0,1.063,0.068,1.578,0.215
				c0.747,0.211,1.376,0.668,2.013,1.1c0.51,0.346,1.023,0.912,1.375,1.404c0.153,0.215,0.39,0.377,0.496,0.617
				c0.077,0.178,0.162,0.42,0.189,0.609c0.02,0.133,0.067,0.291,0.043,0.426c-0.025,0.139-0.031,0.26-0.031,0.404
				c0,0.188-0.002,0.373,0,0.559c0,0.16-0.014,0.324-0.044,0.48c-0.024,0.133-0.095,0.244-0.109,0.379
				c-0.021,0.186-0.006,0.369-0.022,0.555c-0.018,0.195-0.12,0.404-0.229,0.562c-0.083,0.127-0.159,0.236-0.233,0.367
				c-0.1,0.182-0.178,0.373-0.254,0.564c-0.073,0.189-0.118,0.395-0.139,0.6c-0.023,0.236-0.007,0.48-0.037,0.713
				c-0.055,0.404-0.09,0.812-0.025,1.215c0.033,0.205,0.089,0.404,0.138,0.607c0.038,0.152,0.067,0.309,0.098,0.461
				c0.35,0.033,0.7,0.068,1.063,0.066c0.467-0.002,1.062,0.355,1.583,0.684h9.697l-5.779-10.057
				c3.264-2.115,4.896-5.336,4.896-9.439c0-7.499-5.514-12.263-16.011-12.263h-20.511V36.76c0.062,0.014,0.118,0.031,0.182,0.043
				C127.271,36.883,127.682,36.959,128.102,37.068z M139.454,16.223h5.515c3.306,0,5.204,1.632,5.204,4.102
				c0,2.471-1.942,4.103-6.306,4.103c-1.325,0-2.912-0.133-4.413-0.352V16.223z"/>
			<path fill="#FFFFFF" d="M138.246,30.576v0.229c-0.059,0.092-0.027,0.191,0.071,0.242c0.053,0.025,0.068,0.029,0.104-0.016
				c0.041-0.047,0.033-0.164,0.031-0.223c0-0.035-0.01-0.068-0.011-0.102c-0.004-0.016-0.031-0.018-0.028-0.037
				c0.005-0.02,0.041-0.039,0.055-0.059c0.02-0.031,0.038-0.082,0.045-0.115c0.01-0.059-0.016-0.143-0.077-0.168
				C138.334,30.285,138.17,30.48,138.246,30.576z"/>
			<path fill="#FFFFFF" d="M147.133,35.467c-0.098-0.207-0.147-0.42-0.417-0.346c-0.15,0.045-0.319,0.184-0.47,0.246
				c-0.151,0.064-0.302,0.123-0.453,0.188c-0.334,0.15-0.629,0.258-0.998,0.268c-0.285,0.008-0.528,0.055-0.811,0.01
				c-0.207-0.031-0.366-0.09-0.552-0.174c-0.216-0.098-0.447-0.162-0.659-0.264c-0.104-0.051-0.373-0.145-0.453-0.002
				c-0.014,0.02-0.029,0.127-0.031,0.15c-0.007,0.057-0.003,0.098-0.018,0.152c-0.03,0.111-0.001,0.154,0.012,0.258
				c0.015,0.098,0.031,0.182,0.058,0.271c0.03,0.105,0.116,0.18,0.146,0.279c0.031,0.107,0.04,0.219,0.081,0.328
				c0.041,0.107,0.094,0.215,0.132,0.33c0.178,0.543,0.041,1.133,0.063,1.688c0.008,0.207-0.03,0.422-0.087,0.637
				c0.956-0.256,1.927-0.506,2.908-0.572c0.477-0.031,0.817,0.166,1.278,0.236c0.096,0.016,0.198,0.021,0.298,0.033
				c0.02-0.041,0.038-0.086,0.065-0.127c0.178-0.275,0.076-0.697,0.114-1.016c0.018-0.148,0.006-0.301,0.005-0.449
				c0-0.133,0.023-0.256,0.026-0.385c0.004-0.162,0.004-0.314,0.02-0.475c0.021-0.225,0.019-0.482-0.018-0.709
				C147.346,35.84,147.211,35.635,147.133,35.467z"/>
			<path fill="#FFFFFF" d="M136.73,33.416c0.008,0.002,0.17-0.4,0.173-0.451c0.011-0.16-0.179-0.234-0.311-0.246
				c-0.064-0.008-0.126,0.004-0.19,0.008c-0.062,0.002-0.095-0.02-0.152-0.031c-0.169-0.029-0.296,0.115-0.318,0.266
				c-0.024,0.17,0.066,0.273,0.184,0.385c-0.062,0.008-0.112-0.031-0.18-0.018c-0.044,0.131,0.193,0.244,0.286,0.258
				c0.069,0.012,0.133,0.031,0.204,0.023c0.111-0.01,0.24,0.008,0.345-0.029c0.021-0.006,0.195-0.148,0.126-0.156
				C136.842,33.416,136.786,33.424,136.73,33.416z"/>
			<path fill="#FFFFFF" d="M137.306,31.271c-0.12,0.006-0.406,0.252-0.296,0.385c0.061,0.072,0.212,0.059,0.295,0.041
				c0.09-0.021,0.255-0.074,0.255-0.191c0-0.02-0.006-0.041-0.016-0.062C137.503,31.355,137.388,31.271,137.306,31.271z"/>
		</g>
		<g>
			<path fill="#FFFFFF" d="M103.817,16.744h0.149c-0.007-0.088-0.013-0.176-0.021-0.264l-0.175,0.209L103.817,16.744z"/>
			<polygon fill="#FFFFFF" points="104.017,17.39 104.013,17.357 103.982,17.32 103.911,17.39 			"/>
			<path fill="#FFFFFF" d="M104.081,18.219h-0.33v0.473h0.367C104.106,18.547,104.093,18.389,104.081,18.219z"/>
			<polygon fill="#FFFFFF" points="104.052,17.849 104.035,17.634 103.752,17.634 			"/>
			<path fill="#FFFFFF" d="M106.656,28.135c-0.286-0.51-0.81-1.441-1.199-2.131h-1.218c0.758,0.67,1.904,1.686,2.417,2.141V28.135z"
				/>
			<polygon fill="#FFFFFF" points="103.75,17.044 103.75,17.207 103.825,17.132 			"/>
			<polygon fill="#FFFFFF" points="103.75,17.933 103.75,17.978 103.812,17.978 			"/>
			<path fill="#FFFFFF" d="M89.797,26.24c0.34,0.15,0.68,0.256,0.973,0.48c0.227,0.174,0.451,0.328,0.716,0.436
				c0.21,0.084,0.489,0.27,0.715,0.295c0.257,0.031,0.53-0.129,0.776-0.193c0.288-0.076,0.34,0.037,0.601-0.15
				c0.229-0.168,0.383-0.258,0.653-0.311c0.14-0.029,0.27-0.107,0.416-0.051c0.197,0.076,0.126,0.133,0.189,0.285
				c0.104,0.248,0.224,0.447,0.291,0.719c0.039,0.158,0.008,0.465,0.175,0.527c0.039,0.014,0.341-0.053,0.42-0.051
				c0.159,0,0.32,0,0.479,0c0.172,0,0.612-0.078,0.762,0.012c0.098,0.061,0.096,0.199,0.13,0.285
				c0.051,0.123,0.15,0.227,0.199,0.348c0.018,0.043,0.025,0.074,0.035,0.109c0.254,0.041,0.556,0.074,0.81,0.07l0.122-3.047h-0.313
				v-2.608h0.243l0.166-3.189h0.401h0.114l0.167,3.189h1.13v-1.05h2.312l0.187-3.654h0.195l0.194-2.518h-0.453v-0.799h0.516
				l0.106-1.381h0.283v-1.05h0.242v1.05h0.134h0.111l0.107,1.381h0.517v0.799h-0.453l0.195,2.518h0.195l0.188,3.654h2.31v0.822
				l1.157-0.283l0.139-2.679h0.402h0.114l0.13,2.488l3.897-0.951l0.002,0.004h0.002l0.144,0.348l-3.764,1.574v0.983
				c0.361-0.053,0.735-0.064,1.053-0.141c1.002-0.244,1.979-0.727,2.982-1.004c1.332-0.368,2.553-0.153,3.903-0.182
				c0.224-0.006,0.495,0.002,0.787,0.008l-6.169-15.312H95.428L88.155,26.08c0.12,0,0.241,0.004,0.364,0
				C88.994,26.064,89.353,26.041,89.797,26.24z"/>
			<path fill="#FFFFFF" d="M103.771,14.237c-0.007,0-0.014,0-0.021,0v1.139h0.109C103.812,14.757,103.777,14.298,103.771,14.237z"/>
			<polygon fill="#FFFFFF" points="103.75,16.174 103.75,16.333 103.884,16.174 			"/>
			<path fill="#FFFFFF" d="M108.658,20.875h-0.099c-0.009,0.171-0.02,0.384-0.033,0.621l0.163-0.017
				C108.677,21.249,108.667,21.042,108.658,20.875z"/>
			<path fill="#FFFFFF" d="M108.637,20.451c-0.027,0-0.029,0-0.057,0c-0.002,0.021-0.004,0.09-0.009,0.18h0.073
				C108.641,20.541,108.637,20.472,108.637,20.451z"/>
			<polygon fill="#FFFFFF" points="106.742,26.004 105.736,26.004 106.675,27.67 			"/>
			<path fill="#FFFFFF" d="M108.702,21.721l-0.187,0.019c-0.018,0.346-0.037,0.722-0.057,1.086l0.297-0.072
				C108.737,22.406,108.718,22.048,108.702,21.721z"/>
			<polygon fill="#FFFFFF" points="110.705,22.664 109.016,23.076 109.032,23.365 			"/>
			<path fill="#FFFFFF" d="M108.776,23.135l-0.338,0.083c-0.003,0.059-0.007,0.119-0.009,0.178h0.36
				C108.786,23.31,108.78,23.224,108.776,23.135z"/>
			<polygon fill="#FFFFFF" points="108.499,29.191 107.366,29.191 107.487,29.275 			"/>
			<polygon fill="#FFFFFF" points="108.191,23.277 107.708,23.396 108.185,23.396 			"/>
			<path fill="#FFFFFF" d="M103.188,17.634c-0.004,0.049-0.009,0.1-0.013,0.146l0.148-0.146H103.188z"/>
			<path fill="#FFFFFF" d="M98.642,20.451c-0.027,0-0.029,0-0.058,0c0,0.021-0.004,0.09-0.008,0.18h0.075
				C98.646,20.541,98.643,20.472,98.642,20.451z"/>
			<path fill="#FFFFFF" d="M98.664,20.875h-0.101c-0.007,0.133-0.015,0.293-0.023,0.467h0.149
				C98.68,21.167,98.671,21.007,98.664,20.875z"/>
			<path fill="#FFFFFF" d="M98.726,22.044l-0.221-0.048c-0.024,0.467-0.05,0.964-0.072,1.399h0.362
				C98.774,22.976,98.75,22.496,98.726,22.044z"/>
			<path fill="#FFFFFF" d="M98.702,21.583h-0.176c-0.002,0.055-0.006,0.11-0.008,0.166l0.194,0.043
				C98.708,21.721,98.705,21.652,98.702,21.583z"/>
			<path fill="#FFFFFF" d="M118.161,26.15c-0.69,0.031-1.289,0-1.958-0.164c-0.33-0.08-0.677-0.184-1.013-0.217
				c-0.35-0.037-0.76,0.086-1.088-0.076c0.199-0.143,0.439-0.238,0.66-0.348c-0.604-0.209-1.271-0.129-1.897-0.104
				c-0.572,0.021-1.123-0.111-1.685-0.072c-0.631,0.043-1.268-0.031-1.902-0.023v0.857h-0.315l0.121,3.004
				c0.287,0.004,0.575,0.023,0.868,0.062l-0.863,0.07v0.004c0.324,0.008,0.599,0.059,0.578,0.262
				c-0.234,0.006-1.146,0.137-1.801,0.137l0.415,0.291c0.066,0.121-0.98-0.037-1.113-0.053c-0.575-0.072-1.147-0.1-1.729-0.082
				c0.268-0.107,0.579-0.045,0.824-0.211c-0.205-0.219-0.59-0.125-0.834-0.297c0.12-0.188,0.43-0.123,0.635-0.121
				c0.188,0,0.372-0.02,0.557-0.039l0.024-0.574l-2.771-2.453h-0.521l-2.771,2.453l0.023,0.586c0.234,0.021,0.472,0.039,0.714,0.051
				c-0.144-0.004-0.279,0.016-0.333,0.121c-0.258-0.035-0.528,0.004-0.674,0.178c0.171,0.057,0.244,0.18,0.397,0.238
				c0.178,0.064,0.451,0.035,0.637,0.098c0.104,0.033,0.192,0.068,0.279,0.102l0.105-0.123c-0.063-0.008-0.129-0.021-0.191-0.025
				c0.068-0.061,0.165-0.08,0.26-0.055l-0.068,0.08c0.615,0.082,1.278,0.234,1.888,0.246c0.078-0.025,0.146-0.035,0.196,0.008
				c-0.063,0.004-0.132-0.004-0.196-0.008c-0.062,0.021-0.127,0.049-0.196,0.072c-0.257,0.084-0.518,0.115-0.791,0.09
				c-0.093-0.01-0.191-0.033-0.292-0.061c-0.583,0.016-1.189,0.1-1.801,0.172c0.103,0.143,0.201,0.291,0.315,0.406
				c0.234,0.236,0.559,0.338,0.795,0.564c0.141,0.133,0.19,0.291,0.358,0.42c0.15,0.113,0.352,0.121,0.491,0.271
				c-0.285,0.143-0.697,0.039-0.978,0.217c0.117,0.109,0.241,0.043,0.345,0.16c-0.268,0.225-0.632,0.055-0.906,0.215
				c0.241,0.213,0.897,0.334,0.158,0.52c-0.674,0.168-1.269-0.086-1.928-0.117c0.103-0.154,0.581-0.037,0.785-0.078
				c-0.176-0.229-1.303-0.043-1.574,0.031c-0.006,0.121-0.015,0.25-0.025,0.369c-0.044,0.01-0.089,0.02-0.133,0.027
				c0,0.107-0.031,0.188,0.037,0.295c-0.312,0.037-0.603,0.012-0.914,0.105c0.021,0.051-0.008,0.102,0.04,0.168
				c-0.216,0.131-0.754,0.111-1.019,0.141c-0.629,0.062-1.253,0.139-1.883,0.217c-0.392,0.051-0.794,0.006-1.188,0.016
				c-0.231,0.004-0.465,0.104-0.693,0.146c0.041-0.014,0.086-0.02,0.113-0.049c-0.257-0.047-0.532-0.002-0.793-0.035
				c-0.292-0.037-0.499-0.105-0.782,0.033c-0.021,0.229,0.224,0.246,0.362,0.385c-0.184,0.209-1.051,0.123-1.328,0.154
				c-0.282,0.031-1.439,0.283-1.345,0.705c0.096-0.006,0.273,0.043,0.225,0.176c-0.056,0.152-0.439,0.08-0.551,0.061
				c-0.317-0.057-0.778-0.314-0.918-0.646c-0.229,0.016-0.458,0.023-0.668,0.037c-0.02,0.342-0.219,0.357-0.479,0.387
				c-0.25,0.027-1.154,0.109-1.273-0.062c0.41-0.031,0.88-0.135,1.249-0.318c-0.611-0.068-1.213-0.48-1.754-0.02
				c-0.081,0.07-0.158,0.123-0.236,0.166l-1.807,4.484h12.792l1.367-4.146h13.628l1.411,4.146h12.792L119.1,26.055
				C118.749,26.08,118.385,26.141,118.161,26.15z M105.932,30.289c-0.229,0.027-0.458,0.051-0.688,0.072
				c-0.262,0.023-0.8,0.037-0.97-0.195c0.363-0.355,0.864-0.215,1.303-0.133c0.3,0.057,0.757,0.002,0.991,0.156
				C106.499,30.141,106.036,30.277,105.932,30.289z M109.749,30.74c-0.387,0-0.817,0.053-1.195-0.014
				c0.14-0.113,0.502-0.117,0.683-0.129c0.286-0.018,0.573-0.049,0.856-0.064l0.767,0.139
				C110.708,30.852,110.009,30.74,109.749,30.74z"/>
			<polygon fill="#FFFFFF" points="103.508,17.978 103.508,17.793 103.324,17.978 			"/>
			<path fill="#FFFFFF" d="M97.567,29.262c-0.028-0.096-0.113-0.172-0.222-0.229C97.375,29.152,97.402,29.205,97.567,29.262z"/>
			<path fill="#FFFFFF" d="M88.5,34.949c-0.015,0.006-0.032,0.01-0.049,0.014c0.565,0.014,1.156,0.012,1.559-0.291
				c-0.153-0.152-0.691-0.199-0.911-0.242c-0.348-0.072-0.719-0.125-1.06-0.035C87.263,34.594,88.218,34.824,88.5,34.949z"/>
			<polygon fill="#FFFFFF" points="103.413,17.39 103.508,17.39 103.508,17 103.268,17.287 			"/>
			<polygon fill="#FFFFFF" points="101.489,26.004 100.48,26.004 100.548,27.672 			"/>
			<polygon fill="#FFFFFF" points="103.508,16.174 103.338,16.174 103.508,16.376 			"/>
			<path fill="#FFFFFF" d="M103.508,14.237c-0.02,0-0.038,0-0.057,0c-0.006,0.062-0.041,0.521-0.089,1.139h0.146V14.237z"/>
			<path fill="#FFFFFF" d="M103.452,16.689l-0.174-0.209c-0.008,0.088-0.014,0.176-0.021,0.264h0.148L103.452,16.689z"/>
			<path fill="#FFFFFF" d="M103.508,18.219h-0.366c-0.014,0.17-0.025,0.328-0.037,0.473h0.403V18.219z"/>
			<path fill="#FFFFFF" d="M100.567,28.145c0.515-0.455,1.659-1.471,2.416-2.141h-1.216c-0.389,0.689-0.912,1.619-1.2,2.131V28.145z
				"/>
		</g>
	</g>
	<g>
		<g>
			<path fill="#FFFFFF" d="M45.316,17.599c0.145,0.278,0.336,0.503,0.575,0.675c0.238,0.172,0.52,0.3,0.842,0.384
				c0.322,0.083,0.655,0.125,1,0.125c0.233,0,0.483-0.02,0.751-0.059c0.267-0.039,0.517-0.114,0.75-0.225
				c0.233-0.111,0.428-0.264,0.583-0.458c0.156-0.194,0.233-0.442,0.233-0.742c0-0.322-0.103-0.583-0.308-0.784
				c-0.206-0.2-0.476-0.367-0.809-0.5c-0.334-0.134-0.712-0.25-1.134-0.351c-0.423-0.1-0.851-0.211-1.284-0.333
				c-0.444-0.111-0.878-0.248-1.301-0.409c-0.422-0.161-0.8-0.37-1.134-0.625c-0.333-0.256-0.603-0.575-0.809-0.959
				c-0.205-0.383-0.309-0.847-0.309-1.392c0-0.611,0.131-1.142,0.393-1.592c0.261-0.45,0.603-0.825,1.025-1.125
				c0.422-0.3,0.9-0.522,1.434-0.667c0.533-0.144,1.067-0.216,1.601-0.216c0.622,0,1.22,0.069,1.792,0.208
				c0.572,0.139,1.081,0.364,1.525,0.675c0.445,0.312,0.798,0.708,1.06,1.192c0.261,0.483,0.392,1.07,0.392,1.759h-2.534
				c-0.022-0.355-0.098-0.65-0.226-0.884s-0.297-0.417-0.509-0.55c-0.211-0.134-0.452-0.228-0.725-0.284s-0.57-0.083-0.893-0.083
				c-0.211,0-0.422,0.022-0.633,0.067c-0.212,0.044-0.403,0.123-0.575,0.233c-0.173,0.111-0.314,0.25-0.426,0.417
				c-0.111,0.167-0.166,0.378-0.166,0.633c0,0.233,0.044,0.422,0.133,0.567s0.264,0.278,0.525,0.4
				c0.261,0.122,0.622,0.245,1.084,0.367c0.461,0.123,1.063,0.278,1.809,0.467c0.223,0.044,0.53,0.125,0.926,0.242
				c0.394,0.117,0.786,0.303,1.175,0.559c0.39,0.256,0.726,0.598,1.009,1.025s0.426,0.975,0.426,1.642
				c0,0.545-0.106,1.05-0.317,1.517s-0.525,0.87-0.941,1.209c-0.417,0.339-0.935,0.603-1.551,0.792
				c-0.617,0.189-1.331,0.283-2.143,0.283c-0.656,0-1.292-0.081-1.909-0.242s-1.161-0.414-1.634-0.758
				c-0.473-0.345-0.848-0.784-1.126-1.317c-0.277-0.534-0.411-1.167-0.399-1.901H45.1C45.1,16.982,45.172,17.322,45.316,17.599z"/>
			<path fill="#FFFFFF" d="M60.071,8.629l4.451,11.904h-2.717l-0.9-2.651h-4.452l-0.934,2.651h-2.634l4.501-11.904H60.071z
				 M60.222,15.932l-1.501-4.368h-0.033l-1.551,4.368H60.222z"/>
			<path fill="#FFFFFF" d="M67.374,20.534L63.522,8.629h2.685l2.651,8.37h0.033l2.685-8.37h2.7l-3.951,11.904H67.374z"/>
			<path fill="#FFFFFF" d="M84.196,8.629v2.201H77.91v2.551h5.77v2.034h-5.77v2.918h6.419v2.201h-9.036V8.629H84.196z"/>
			<path fill="#FFFFFF" d="M42.382,29.83v-2.201h9.754v2.201h-3.568v9.703H45.95V29.83H42.382z"/>
			<path fill="#FFFFFF" d="M56.119,27.629v4.568h4.819v-4.568h2.617v11.904h-2.617v-5.135h-4.819v5.135h-2.617V27.629H56.119z"/>
			<path fill="#FFFFFF" d="M74.76,27.629v2.201h-6.286v2.551h5.77v2.034h-5.77v2.918h6.419v2.2h-9.036V27.629H74.76z"/>
		</g>
	</g>
</g>
<g>
	<path fill="#FFFFFF" d="M279.686,16.601v-0.177h-0.045c-0.133,0-0.264,0.044-0.396,0.133v-0.044c0.133-0.133,0.441-0.31,0.441-0.31
		c0-0.044,0-0.088-0.045-0.75c0-0.662,0.266-1.06,0.752-1.545h0.088c-0.133,0.309-0.486,0.485-0.662,1.015
		c-0.133,0.354,0,0.795,0,1.28c0.043,0,0.133,0,0.176,0.044c0,0.045-0.043,0.089-0.133,0.133v0.177h0.09v0.044l-0.09,0.088
		l-0.088,0.266h0.045c0,0.044-0.09,0.176-0.133,0.309c0.043,0,0.176-0.044,0.176,0.044c-0.088,0.044-0.176,0.133-0.264,0.221
		l-0.045,0.177c0.133,0,0.176,0,0,0.088c0,0-0.045,0.133-0.045,0.31c0.045-0.044,0.09-0.044,0.133-0.044
		c-0.176,0.265-0.264,0.617-0.176,1.06c0-0.133,0.088-0.31,0.176-0.53h0.045c0,0.354-0.045,0.662-0.133,1.016l0.133,0.309
		c0-0.221,0.088-0.353,0.176-0.573h0.045c0,0,0,0.529-0.045,0.883l0.266,0.309c0-0.529,0.045-0.662,0.221-1.06v0.044
		c-0.088,0.354-0.045,0.751,0,1.148l0.309,0.176c-0.176-0.176-0.354-0.75-0.133-0.971c0,0.177,0.045,0.354,0.133,0.529
		c0.088,0.177,0.133,0.354,0.309,0.53h0.354v-0.354c0.178,0.177,0.486,0.354,0.795,0.397c-0.221-0.088-0.574-0.397-0.795-0.662V20
		l0.178-0.221c0.176,0.176,0.396,0.309,0.793,0.353v0.972c0.09,0,0.662,0.309,1.193,0.441c0.883,0.044,1.941,0,2.428-0.795
		c0.133-0.221,0.264-0.354,0.484-0.529c-0.088-0.221-0.131-0.397-0.131-0.397s0.043-0.618,0.043-1.06
		c-0.221-0.044-0.529-0.354-0.75-0.53c-0.354-0.353-0.883-0.971-1.502-0.883c-0.309,0.045-0.572,0.221-0.838,0.441
		c-0.354,0.354-0.662,0.751-0.971,1.148v0.221l-0.133-0.221c0.486-0.662,0.838-1.324,1.678-1.811
		c0.133-0.441,0.176-1.456-0.088-2.207c-0.045-0.132-0.045-0.221,0.043-0.265c0.221-0.177,0.398,0.662,0.398,1.854
		c0,0.265,0.088,0.396,0.176,0.529c0.838,0.088,1.369,1.016,1.986,1.457l0.574,0.353c-0.045,0.221-0.221,0.574-0.354,0.839
		c0.178-0.177,0.398-0.441,0.486-0.706v-0.044c0.176,0.221,0.221,0.529,0.354,0.883c0.309-0.221,0.352-0.354,0.396-0.397
		c0-0.221-0.045-0.441-0.133-0.662c0.133,0,0.221,0.265,0.309,0.441l0.045-0.088c-0.045-0.177-0.221-0.53-0.221-0.53
		s0.176,0.177,0.266,0.397l0.131-0.441c-0.131-0.265-0.264-0.354-0.352-0.574l0.352,0.265v-0.396
		c-0.088-0.089-0.176-0.221-0.352-0.31c0.043-0.044,0.221,0,0.309,0.044l-0.088-0.441l-0.133-0.088h0.088l-0.045-0.221
		c0.09,0.088,0.133,0.133,0.133,0.221c0.221,0.088,0.486,0.221,0.75,0.485c-0.043-0.309-0.264-0.529-0.617-0.75l-0.354-0.177
		c0-0.088,0.529,0,0.574,0c0-0.088-0.133-0.221-0.176-0.265c-0.133-0.133-0.311-0.221-0.531-0.265v-0.045
		c0-0.088,0.441,0.089,0.441-0.044l-0.088-0.177c-0.088-0.088-0.264-0.177-0.441-0.177c-0.043-0.132,0.221-0.176,0.221-0.176
		c-0.088-0.089-0.264-0.045-0.396-0.133c0.088-0.088,0.354-0.088,0.354-0.221c0-0.265-0.752-0.441-0.662-0.839
		c0.043-0.177,0.352-0.088,0.484-0.044c0,0,0.045,0.044,0.088,0.044c-0.088-0.529-2.561-1.589-3.002-1.722
		c-0.838-0.221-1.367,0.354-3.133,0.221c-0.928-0.088-1.766,1.016-1.855,1.104c-0.088,0.133-0.309,0.221-0.441,0.31
		c-0.441,0.265-0.572,0.706-0.883,1.147c-0.484,0.706-0.838,1.501-0.883,2.428c0,0.354-0.043,0.927,0.133,1.457
		c0.133,0.397,0.221,0.795,0.398,1.191c-0.84-0.838-1.148-1.942-0.662-3.178c0.088-0.221-0.045-0.265-0.133-0.133
		c-0.266,0.354-0.309,0.706-0.619,1.147c-0.396,0.53-0.883,1.236-0.926,2.163c-0.045,0.486-0.045,1.016,0.088,1.546
		c0.133,0.485,0.574,0.838,1.016,1.059c0.043,0.045,0.133,0.177,0.176,0.177c-1.279-0.132-1.5-0.883-1.5-2.251
		c0-0.089-0.045-0.485-0.221-0.221c-0.178,0.265-0.266,0.662-0.354,1.016c-0.309,1.191-0.707,1.059-1.104,1.677
		c-0.619,0.972-0.84,1.898-0.84,2.914c0,0.574,0.045,1.191,0.178,1.811c-0.398-0.619-0.619-1.457-0.486-2.297l-1.104,1.547
		c-0.705,0.043-3.002,0.221-2.957,0.617c0.045,0.309,0.883,0.045,0.928,0.354c0.043,0.221-0.221,0.264-0.662,0.309
		c-0.398,0.045-1.105,0.133-1.105,0.396c-0.088,0.354,1.457,0.398,2.164,0.398c0.309,0,1.016,0,1.236,0.221
		c0.088,0.088,0.043,0.264-0.309,0.264c-0.178,0-0.574,0-0.619,0.221c-0.088,0.441,1.545,0.486,1.943,0.486
		c0.131,0,1.367,0.045,1.367-0.266c0-0.176-0.221-0.131-0.264-0.264c-0.045-0.266,1.324-0.088,1.898-0.088
		c0.131,0,1.896,0.043,1.721,0.572c-0.176,0.441-0.883,0.354-1.191,0.398c-0.707,0.133-0.178,0.484,0.264,0.574
		c0.883,0.176,1.766,0.176,2.605,0.264c0.484,0.045,0.971,0.309,0.441,0.574c-0.309,0.176-0.84,0.133-1.148,0.441
		c-0.396,0.354,0.354,0.574,0.619,0.662c0.705,0.178,1.457,0.221,2.207,0.221c0.662,0,1.279-0.043,1.898-0.088
		c0.131,0,0.883-0.088,0.617-0.309c-0.133-0.088-0.396-0.088-0.529-0.309c-0.088-0.133,0.176-0.178,0.529-0.221
		c3.178-0.311,5.033-2.693,5.783-5.387h12.801c-0.883,10.021-9.977,13.686-19.246,13.686h-0.529
		c-12.449,0.043-19.6-7.814-19.6-17.128c0-9.314,7.15-17.128,19.555-17.128h0.529c9.314,0,18.408,3.664,19.291,13.685h-11.742
		c-0.396-0.839-0.617-1.28-0.838-1.898c-0.133-0.353-0.309-0.706-0.574-0.971c-0.133-0.133-0.309-0.221-0.486-0.397
		c0.045,0.133,0.133,0.309,0.133,0.485c0.354,0.441,0.707,0.839,0.75,1.501l-0.221-0.529c-0.131-0.221-0.264-0.397-0.484-0.618
		c0.043,0.132,0.043,0.265,0.043,0.397c0.133,0.176,0.311,0.397,0.311,0.971h-0.045c0-0.221-0.133-0.485-0.309-0.706
		c-0.045,0.177-0.088,0.354-0.178,0.529c0.178,0.53,0.178,1.192-0.043,1.766l-0.045-0.044c0-0.529,0.045-1.015,0-1.589l-0.088,0.177
		c0.045,0.265,0.088,0.839-0.221,1.412c0.529,1.766,1.324,4.282,0.971,4.459c-0.309,0.088-0.705-0.707-0.971-1.59
		c-0.309-0.971-0.883-2.516-1.236-3.398l-0.529,0.662c-0.662,0.662-1.59,0.75-2.605,0.662c-0.396-0.044-0.662-0.309-1.104-0.441
		c0,0.529,0,1.016-0.043,1.368c-0.088,1.236-0.088,3.884-0.486,3.929c-0.264,0-0.396-2.914-0.396-4.9
		c-0.221-0.133-0.398-0.397-0.529-0.618c-0.133-0.044-0.266-0.089-0.398-0.177c0.133,0.265,0.178,0.618,0.398,0.972
		c-0.311-0.177-0.398-0.707-0.574-1.06l-0.398-0.31c0,0.31,0.045,0.485,0.133,0.795h-0.043c-0.178-0.265-0.223-0.618-0.266-1.016
		l-0.178-0.309v0.529c-0.043-0.221-0.131-0.441-0.131-0.794c-0.09-0.177-0.133-0.441-0.133-0.839
		c-0.133,0.265-0.221,0.662-0.221,1.06h-0.045c0-0.397,0-0.662,0.088-1.06l0.221-0.662v-0.133l-0.043,0.044
		c-0.133,0.133-0.266,0.397-0.309,0.618h-0.045c0-0.309,0.176-0.883,0.486-1.06v-0.088c-0.178,0.177-0.441,0.177-0.531,0.529h-0.043
		c0-0.353,0.354-0.618,0.662-0.794l0.088-0.221c-0.176,0-0.354,0.176-0.529,0.309h-0.045c0.088-0.221,0.309-0.485,0.574-0.529h0.045
		l0.043-0.177c-0.176,0-0.309,0.088-0.529,0.088C279.287,16.645,279.508,16.601,279.686,16.601z M276.021,32.404
		c-0.574-0.088-1.678-0.309-2.252,0.088c-0.264,0.178,0.221,0.398,0.531,0.398c0.662,0,1.014,0,1.896,0.043
		C277.17,32.934,276.771,32.492,276.021,32.404z M278.537,15.585c0-0.309,0.221-0.485,0.486-0.618
		c0.264-0.132,0.441-0.044,0.354,0.266c-0.045,0.221-0.133,0.441-0.266,0.573C278.846,16.072,278.537,15.895,278.537,15.585z
		 M281.363,21.677v-0.485c-0.045,0-0.221-0.044-0.354-0.044C281.098,21.325,281.143,21.413,281.363,21.677z M281.584,19.647
		c0.133-0.133,0.264-0.354,0.396-0.529l0.266,0.265c0.043,0.177,0.043,0.397,0.043,0.662
		C282.068,20.044,281.893,19.912,281.584,19.647z M282.467,13.82c0.043-0.177,0.529-0.177,0.662-0.044
		c0.309,0.309,0.133,0.662,0,0.529c-0.045-0.044,0-0.176-0.088-0.265C282.951,13.909,282.467,13.997,282.467,13.82z M284.188,14.129
		c0.045,0.176-0.043,0.176-0.133,0.044c-0.176-0.265-0.043-0.662,0.354-0.662c0.088,0,0.221,0,0.221,0.088
		C284.629,13.82,284.1,13.776,284.188,14.129z M287.719,20.927c0.133-0.354,0.178-0.883,0.133-1.192
		c-0.088,0-0.309,0.221-0.396,0.31L287.719,20.927z"/>
</g>
</svg>
